<svg xmlns="http://www.w3.org/2000/svg" width="1000" height="300" viewBox="0 0 1000 300" role="img" aria-labelledby="t d">
  <title id="t">Contribution activity</title>
  <desc id="d">Daily contributions over the last 30 days</desc>
  <defs>
    <linearGradient id="bg" x1="0" y1="0" x2="1" y2="1">
      <stop offset="0" stop-color="#0B1120"/><stop offset="0.6" stop-color="#111936"/><stop offset="1" stop-color="#1B1F4B"/>
    </linearGradient>
    <linearGradient id="accent" x1="0" y1="0" x2="1" y2="0">
      <stop offset="0" stop-color="#6366F1"/><stop offset="1" stop-color="#22D3EE"/>
    </linearGradient>
    <linearGradient id="area" x1="0" y1="0" x2="0" y2="1">
      <stop offset="0" stop-color="#6366F1" stop-opacity="0.38"/><stop offset="1" stop-color="#6366F1" stop-opacity="0"/>
    </linearGradient>
    <pattern id="dots" width="24" height="24" patternUnits="userSpaceOnUse"><circle cx="2" cy="2" r="1" fill="#94A3B8" opacity="0.12"/></pattern>
  </defs>
  <rect x="0.5" y="0.5" width="999" height="299" rx="16" fill="url(#bg)" stroke="#26314D"/>
  <rect x="0.5" y="0.5" width="999" height="299" rx="16" fill="url(#dots)"/>
  <g font-family="'Segoe UI','Helvetica Neue',Helvetica,Arial,sans-serif">
    <text x="30" y="42" font-size="18" font-weight="700" fill="#F8FAFC">Contribution activity · last 30 days</text>
    <rect x="30" y="52" width="44" height="3" rx="1.5" fill="url(#accent)"/>
    <text x="970" y="42" font-size="13" fill="#94A3B8" text-anchor="end">99 contributions</text>
    <line x1="70" y1="244.0" x2="960" y2="244.0" stroke="#26314D" stroke-dasharray="3 5"/>
    <text x="58" y="248.0" font-size="11" fill="#64748B" text-anchor="end">0</text>
    <line x1="70" y1="206.0" x2="960" y2="206.0" stroke="#26314D" stroke-dasharray="3 5"/>
    <text x="58" y="210.0" font-size="11" fill="#64748B" text-anchor="end">4</text>
    <line x1="70" y1="168.0" x2="960" y2="168.0" stroke="#26314D" stroke-dasharray="3 5"/>
    <text x="58" y="172.0" font-size="11" fill="#64748B" text-anchor="end">8</text>
    <line x1="70" y1="130.0" x2="960" y2="130.0" stroke="#26314D" stroke-dasharray="3 5"/>
    <text x="58" y="134.0" font-size="11" fill="#64748B" text-anchor="end">12</text>
    <line x1="70" y1="92.0" x2="960" y2="92.0" stroke="#26314D" stroke-dasharray="3 5"/>
    <text x="58" y="96.0" font-size="11" fill="#64748B" text-anchor="end">16</text>
    <polygon points="70.0,244 70.0,225.0 100.7,234.5 131.4,206.0 162.1,215.5 192.8,244.0 223.4,244.0 254.1,244.0 284.8,244.0 315.5,244.0 346.2,206.0 376.9,234.5 407.6,234.5 438.3,215.5 469.0,225.0 499.7,206.0 530.3,196.5 561.0,215.5 591.7,225.0 622.4,196.5 653.1,196.5 683.8,196.5 714.5,225.0 745.2,168.0 775.9,187.0 806.6,149.0 837.2,187.0 867.9,215.5 898.6,244.0 929.3,244.0 960.0,111.0 960.0,244" fill="url(#area)"/>
    <polyline points="70.0,225.0 100.7,234.5 131.4,206.0 162.1,215.5 192.8,244.0 223.4,244.0 254.1,244.0 284.8,244.0 315.5,244.0 346.2,206.0 376.9,234.5 407.6,234.5 438.3,215.5 469.0,225.0 499.7,206.0 530.3,196.5 561.0,215.5 591.7,225.0 622.4,196.5 653.1,196.5 683.8,196.5 714.5,225.0 745.2,168.0 775.9,187.0 806.6,149.0 837.2,187.0 867.9,215.5 898.6,244.0 929.3,244.0 960.0,111.0" fill="none" stroke="url(#accent)" stroke-width="2.5" stroke-linejoin="round" stroke-linecap="round"/>
    <circle cx="70.0" cy="225.0" r="3.4" fill="#22D3EE" stroke="#0B1120" stroke-width="1.5"/>
    <circle cx="100.7" cy="234.5" r="3.4" fill="#22D3EE" stroke="#0B1120" stroke-width="1.5"/>
    <circle cx="131.4" cy="206.0" r="3.4" fill="#22D3EE" stroke="#0B1120" stroke-width="1.5"/>
    <circle cx="162.1" cy="215.5" r="3.4" fill="#22D3EE" stroke="#0B1120" stroke-width="1.5"/>
    <circle cx="346.2" cy="206.0" r="3.4" fill="#22D3EE" stroke="#0B1120" stroke-width="1.5"/>
    <circle cx="376.9" cy="234.5" r="3.4" fill="#22D3EE" stroke="#0B1120" stroke-width="1.5"/>
    <circle cx="407.6" cy="234.5" r="3.4" fill="#22D3EE" stroke="#0B1120" stroke-width="1.5"/>
    <circle cx="438.3" cy="215.5" r="3.4" fill="#22D3EE" stroke="#0B1120" stroke-width="1.5"/>
    <circle cx="469.0" cy="225.0" r="3.4" fill="#22D3EE" stroke="#0B1120" stroke-width="1.5"/>
    <circle cx="499.7" cy="206.0" r="3.4" fill="#22D3EE" stroke="#0B1120" stroke-width="1.5"/>
    <circle cx="530.3" cy="196.5" r="3.4" fill="#22D3EE" stroke="#0B1120" stroke-width="1.5"/>
    <circle cx="561.0" cy="215.5" r="3.4" fill="#22D3EE" stroke="#0B1120" stroke-width="1.5"/>
    <circle cx="591.7" cy="225.0" r="3.4" fill="#22D3EE" stroke="#0B1120" stroke-width="1.5"/>
    <circle cx="622.4" cy="196.5" r="3.4" fill="#22D3EE" stroke="#0B1120" stroke-width="1.5"/>
    <circle cx="653.1" cy="196.5" r="3.4" fill="#22D3EE" stroke="#0B1120" stroke-width="1.5"/>
    <circle cx="683.8" cy="196.5" r="3.4" fill="#22D3EE" stroke="#0B1120" stroke-width="1.5"/>
    <circle cx="714.5" cy="225.0" r="3.4" fill="#22D3EE" stroke="#0B1120" stroke-width="1.5"/>
    <circle cx="745.2" cy="168.0" r="3.4" fill="#22D3EE" stroke="#0B1120" stroke-width="1.5"/>
    <circle cx="775.9" cy="187.0" r="3.4" fill="#22D3EE" stroke="#0B1120" stroke-width="1.5"/>
    <circle cx="806.6" cy="149.0" r="3.4" fill="#22D3EE" stroke="#0B1120" stroke-width="1.5"/>
    <circle cx="837.2" cy="187.0" r="3.4" fill="#22D3EE" stroke="#0B1120" stroke-width="1.5"/>
    <circle cx="867.9" cy="215.5" r="3.4" fill="#22D3EE" stroke="#0B1120" stroke-width="1.5"/>
    <circle cx="960.0" cy="111.0" r="3.4" fill="#22D3EE" stroke="#0B1120" stroke-width="1.5"/>
    <text x="70.0" y="268" font-size="11" fill="#64748B" text-anchor="middle">Aug 22</text>
    <text x="223.4" y="268" font-size="11" fill="#64748B" text-anchor="middle">Aug 27</text>
    <text x="376.9" y="268" font-size="11" fill="#64748B" text-anchor="middle">Sep 1</text>
    <text x="530.3" y="268" font-size="11" fill="#64748B" text-anchor="middle">Sep 6</text>
    <text x="683.8" y="268" font-size="11" fill="#64748B" text-anchor="middle">Sep 11</text>
    <text x="837.2" y="268" font-size="11" fill="#64748B" text-anchor="middle">Sep 16</text>
    <text x="960.0" y="268" font-size="11" font-weight="600" fill="#94A3B8" text-anchor="middle">Today</text>
  </g>
</svg>
