<svg xmlns="http://www.w3.org/2000/svg" width="1000" height="300" viewBox="0 0 1000 300" role="img" aria-labelledby="t d">
  <title id="t">Contribution activity</title>
  <desc id="d">Daily contributions over the last 30 days</desc>
  <defs>
    <linearGradient id="bg" x1="0" y1="0" x2="1" y2="1">
      <stop offset="0" stop-color="#0B1120"/><stop offset="0.6" stop-color="#111936"/><stop offset="1" stop-color="#1B1F4B"/>
    </linearGradient>
    <linearGradient id="accent" x1="0" y1="0" x2="1" y2="0">
      <stop offset="0" stop-color="#6366F1"/><stop offset="1" stop-color="#22D3EE"/>
    </linearGradient>
    <linearGradient id="area" x1="0" y1="0" x2="0" y2="1">
      <stop offset="0" stop-color="#6366F1" stop-opacity="0.38"/><stop offset="1" stop-color="#6366F1" stop-opacity="0"/>
    </linearGradient>
    <pattern id="dots" width="24" height="24" patternUnits="userSpaceOnUse"><circle cx="2" cy="2" r="1" fill="#94A3B8" opacity="0.12"/></pattern>
  </defs>
  <rect x="0.5" y="0.5" width="999" height="299" rx="16" fill="url(#bg)" stroke="#26314D"/>
  <rect x="0.5" y="0.5" width="999" height="299" rx="16" fill="url(#dots)"/>
  <g font-family="'Segoe UI','Helvetica Neue',Helvetica,Arial,sans-serif">
    <text x="30" y="42" font-size="18" font-weight="700" fill="#F8FAFC">Contribution activity · last 30 days</text>
    <rect x="30" y="52" width="44" height="3" rx="1.5" fill="url(#accent)"/>
    <text x="970" y="42" font-size="13" fill="#94A3B8" text-anchor="end">114 contributions</text>
    <line x1="70" y1="244.0" x2="960" y2="244.0" stroke="#26314D" stroke-dasharray="3 5"/>
    <text x="58" y="248.0" font-size="11" fill="#64748B" text-anchor="end">0</text>
    <line x1="70" y1="206.0" x2="960" y2="206.0" stroke="#26314D" stroke-dasharray="3 5"/>
    <text x="58" y="210.0" font-size="11" fill="#64748B" text-anchor="end">4</text>
    <line x1="70" y1="168.0" x2="960" y2="168.0" stroke="#26314D" stroke-dasharray="3 5"/>
    <text x="58" y="172.0" font-size="11" fill="#64748B" text-anchor="end">8</text>
    <line x1="70" y1="130.0" x2="960" y2="130.0" stroke="#26314D" stroke-dasharray="3 5"/>
    <text x="58" y="134.0" font-size="11" fill="#64748B" text-anchor="end">12</text>
    <line x1="70" y1="92.0" x2="960" y2="92.0" stroke="#26314D" stroke-dasharray="3 5"/>
    <text x="58" y="96.0" font-size="11" fill="#64748B" text-anchor="end">16</text>
    <style>.draw { animation: draw 10s linear infinite; } .areain { animation: areain 10s linear infinite; } @keyframes draw { 0%, 3.9% { stroke-dashoffset: 1283; opacity: 0; } 4% { stroke-dashoffset: 1283; opacity: 1; } 36% { stroke-dashoffset: 0; opacity: 1; } 90% { stroke-dashoffset: 0; opacity: 1; } 100% { stroke-dashoffset: 0; opacity: 0; } } @keyframes areain { 0%, 20% { opacity: 0; } 42% { opacity: 1; } 90% { opacity: 1; } 100% { opacity: 0; } } .pop5 { animation: pop5 10s linear infinite; } @keyframes pop5 { 0%, 8.3% { opacity: 0; } 9.8% { opacity: 1; } 90% { opacity: 1; } 100% { opacity: 0; } } .pop6 { animation: pop6 10s linear infinite; } @keyframes pop6 { 0%, 9.3% { opacity: 0; } 10.8% { opacity: 1; } 90% { opacity: 1; } 100% { opacity: 0; } } .pop7 { animation: pop7 10s linear infinite; } @keyframes pop7 { 0%, 10.1% { opacity: 0; } 11.6% { opacity: 1; } 90% { opacity: 1; } 100% { opacity: 0; } } .pop8 { animation: pop8 10s linear infinite; } @keyframes pop8 { 0%, 11.0% { opacity: 0; } 12.5% { opacity: 1; } 90% { opacity: 1; } 100% { opacity: 0; } } .pop9 { animation: pop9 10s linear infinite; } @keyframes pop9 { 0%, 11.8% { opacity: 0; } 13.3% { opacity: 1; } 90% { opacity: 1; } 100% { opacity: 0; } } .pop10 { animation: pop10 10s linear infinite; } @keyframes pop10 { 0%, 12.7% { opacity: 0; } 14.2% { opacity: 1; } 90% { opacity: 1; } 100% { opacity: 0; } } .pop11 { animation: pop11 10s linear infinite; } @keyframes pop11 { 0%, 13.5% { opacity: 0; } 15.0% { opacity: 1; } 90% { opacity: 1; } 100% { opacity: 0; } } .pop12 { animation: pop12 10s linear infinite; } @keyframes pop12 { 0%, 14.4% { opacity: 0; } 15.9% { opacity: 1; } 90% { opacity: 1; } 100% { opacity: 0; } } .pop13 { animation: pop13 10s linear infinite; } @keyframes pop13 { 0%, 15.2% { opacity: 0; } 16.7% { opacity: 1; } 90% { opacity: 1; } 100% { opacity: 0; } } .pop14 { animation: pop14 10s linear infinite; } @keyframes pop14 { 0%, 16.3% { opacity: 0; } 17.8% { opacity: 1; } 90% { opacity: 1; } 100% { opacity: 0; } } .pop15 { animation: pop15 10s linear infinite; } @keyframes pop15 { 0%, 17.0% { opacity: 0; } 18.5% { opacity: 1; } 90% { opacity: 1; } 100% { opacity: 0; } } .pop16 { animation: pop16 10s linear infinite; } @keyframes pop16 { 0%, 17.8% { opacity: 0; } 19.3% { opacity: 1; } 90% { opacity: 1; } 100% { opacity: 0; } } .pop17 { animation: pop17 10s linear infinite; } @keyframes pop17 { 0%, 18.8% { opacity: 0; } 20.3% { opacity: 1; } 90% { opacity: 1; } 100% { opacity: 0; } } .pop18 { animation: pop18 10s linear infinite; } @keyframes pop18 { 0%, 20.5% { opacity: 0; } 22.0% { opacity: 1; } 90% { opacity: 1; } 100% { opacity: 0; } } .pop19 { animation: pop19 10s linear infinite; } @keyframes pop19 { 0%, 21.4% { opacity: 0; } 22.9% { opacity: 1; } 90% { opacity: 1; } 100% { opacity: 0; } } .pop20 { animation: pop20 10s linear infinite; } @keyframes pop20 { 0%, 22.6% { opacity: 0; } 24.1% { opacity: 1; } 90% { opacity: 1; } 100% { opacity: 0; } } .pop21 { animation: pop21 10s linear infinite; } @keyframes pop21 { 0%, 23.8% { opacity: 0; } 25.3% { opacity: 1; } 90% { opacity: 1; } 100% { opacity: 0; } } .pop22 { animation: pop22 10s linear infinite; } @keyframes pop22 { 0%, 24.8% { opacity: 0; } 26.3% { opacity: 1; } 90% { opacity: 1; } 100% { opacity: 0; } } .pop25 { animation: pop25 10s linear infinite; } @keyframes pop25 { 0%, 30.5% { opacity: 0; } 32.0% { opacity: 1; } 90% { opacity: 1; } 100% { opacity: 0; } } .pop26 { animation: pop26 10s linear infinite; } @keyframes pop26 { 0%, 32.1% { opacity: 0; } 33.6% { opacity: 1; } 90% { opacity: 1; } 100% { opacity: 0; } } .pop27 { animation: pop27 10s linear infinite; } @keyframes pop27 { 0%, 33.4% { opacity: 0; } 34.9% { opacity: 1; } 90% { opacity: 1; } 100% { opacity: 0; } } .pop28 { animation: pop28 10s linear infinite; } @keyframes pop28 { 0%, 34.2% { opacity: 0; } 35.7% { opacity: 1; } 90% { opacity: 1; } 100% { opacity: 0; } } @media (prefers-reduced-motion: reduce) { .draw, .areain, [class^=pop] { animation: none; } }</style>
    <path class="areain" d="M 70.0,244.0 L 100.7,244.0 L 131.4,244.0 L 162.1,244.0 L 192.8,244.0 L 223.4,206.0 L 254.1,234.5 L 284.8,234.5 L 315.5,215.5 L 346.2,225.0 L 376.9,206.0 L 407.6,196.5 L 438.3,215.5 L 469.0,225.0 L 499.7,196.5 L 530.3,196.5 L 561.0,196.5 L 591.7,225.0 L 622.4,168.0 L 653.1,187.0 L 683.8,149.0 L 714.5,187.0 L 745.2,215.5 L 775.9,244.0 L 806.6,244.0 L 837.2,92.0 L 867.9,149.0 L 898.6,187.0 L 929.3,177.5 L 960.0,244.0 L 960.0,244 L 70.0,244 Z" fill="url(#area)"/>
    <path class="draw" d="M 70.0,244.0 L 100.7,244.0 L 131.4,244.0 L 162.1,244.0 L 192.8,244.0 L 223.4,206.0 L 254.1,234.5 L 284.8,234.5 L 315.5,215.5 L 346.2,225.0 L 376.9,206.0 L 407.6,196.5 L 438.3,215.5 L 469.0,225.0 L 499.7,196.5 L 530.3,196.5 L 561.0,196.5 L 591.7,225.0 L 622.4,168.0 L 653.1,187.0 L 683.8,149.0 L 714.5,187.0 L 745.2,215.5 L 775.9,244.0 L 806.6,244.0 L 837.2,92.0 L 867.9,149.0 L 898.6,187.0 L 929.3,177.5 L 960.0,244.0" stroke-dasharray="1283" stroke-dashoffset="0" fill="none" stroke="url(#accent)" stroke-width="2.5" stroke-linejoin="round"/>
    <circle class="pop5" cx="223.4" cy="206.0" r="3.4" fill="#22D3EE" stroke="#0B1120" stroke-width="1.5"/>
    <circle class="pop6" cx="254.1" cy="234.5" r="3.4" fill="#22D3EE" stroke="#0B1120" stroke-width="1.5"/>
    <circle class="pop7" cx="284.8" cy="234.5" r="3.4" fill="#22D3EE" stroke="#0B1120" stroke-width="1.5"/>
    <circle class="pop8" cx="315.5" cy="215.5" r="3.4" fill="#22D3EE" stroke="#0B1120" stroke-width="1.5"/>
    <circle class="pop9" cx="346.2" cy="225.0" r="3.4" fill="#22D3EE" stroke="#0B1120" stroke-width="1.5"/>
    <circle class="pop10" cx="376.9" cy="206.0" r="3.4" fill="#22D3EE" stroke="#0B1120" stroke-width="1.5"/>
    <circle class="pop11" cx="407.6" cy="196.5" r="3.4" fill="#22D3EE" stroke="#0B1120" stroke-width="1.5"/>
    <circle class="pop12" cx="438.3" cy="215.5" r="3.4" fill="#22D3EE" stroke="#0B1120" stroke-width="1.5"/>
    <circle class="pop13" cx="469.0" cy="225.0" r="3.4" fill="#22D3EE" stroke="#0B1120" stroke-width="1.5"/>
    <circle class="pop14" cx="499.7" cy="196.5" r="3.4" fill="#22D3EE" stroke="#0B1120" stroke-width="1.5"/>
    <circle class="pop15" cx="530.3" cy="196.5" r="3.4" fill="#22D3EE" stroke="#0B1120" stroke-width="1.5"/>
    <circle class="pop16" cx="561.0" cy="196.5" r="3.4" fill="#22D3EE" stroke="#0B1120" stroke-width="1.5"/>
    <circle class="pop17" cx="591.7" cy="225.0" r="3.4" fill="#22D3EE" stroke="#0B1120" stroke-width="1.5"/>
    <circle class="pop18" cx="622.4" cy="168.0" r="3.4" fill="#22D3EE" stroke="#0B1120" stroke-width="1.5"/>
    <circle class="pop19" cx="653.1" cy="187.0" r="3.4" fill="#22D3EE" stroke="#0B1120" stroke-width="1.5"/>
    <circle class="pop20" cx="683.8" cy="149.0" r="3.4" fill="#22D3EE" stroke="#0B1120" stroke-width="1.5"/>
    <circle class="pop21" cx="714.5" cy="187.0" r="3.4" fill="#22D3EE" stroke="#0B1120" stroke-width="1.5"/>
    <circle class="pop22" cx="745.2" cy="215.5" r="3.4" fill="#22D3EE" stroke="#0B1120" stroke-width="1.5"/>
    <circle class="pop25" cx="837.2" cy="92.0" r="3.4" fill="#22D3EE" stroke="#0B1120" stroke-width="1.5"/>
    <circle class="pop26" cx="867.9" cy="149.0" r="3.4" fill="#22D3EE" stroke="#0B1120" stroke-width="1.5"/>
    <circle class="pop27" cx="898.6" cy="187.0" r="3.4" fill="#22D3EE" stroke="#0B1120" stroke-width="1.5"/>
    <circle class="pop28" cx="929.3" cy="177.5" r="3.4" fill="#22D3EE" stroke="#0B1120" stroke-width="1.5"/>
    <text x="70.0" y="268" font-size="11" fill="#64748B" text-anchor="middle">Aug 26</text>
    <text x="223.4" y="268" font-size="11" fill="#64748B" text-anchor="middle">Aug 31</text>
    <text x="376.9" y="268" font-size="11" fill="#64748B" text-anchor="middle">Sep 5</text>
    <text x="530.3" y="268" font-size="11" fill="#64748B" text-anchor="middle">Sep 10</text>
    <text x="683.8" y="268" font-size="11" fill="#64748B" text-anchor="middle">Sep 15</text>
    <text x="837.2" y="268" font-size="11" fill="#64748B" text-anchor="middle">Sep 20</text>
    <text x="960.0" y="268" font-size="11" font-weight="600" fill="#94A3B8" text-anchor="middle">Today</text>
  </g>
</svg>
